<?xml version="1.0" encoding="UTF-8"?>
<svg width="1400" height="1000" viewBox="0 0 1400 1000" xmlns="http://www.w3.org/2000/svg" font-family="'Segoe UI', Arial, sans-serif">

  <!-- Background -->
  <rect width="1400" height="1000" fill="#0f1117"/>

  <!-- Title -->
  <text x="700" y="40" text-anchor="middle" fill="#ffffff" font-size="22" font-weight="700" letter-spacing="1">Enterprise GCP Infrastructure — Terraform</text>
  <text x="700" y="62" text-anchor="middle" fill="#6b7280" font-size="13">64 Resources · 6 Modules · 3 Applications · 1 terraform apply</text>

  <!-- ── INTERNET ── -->
  <rect x="590" y="80" width="220" height="44" rx="8" fill="#1e293b" stroke="#3b82f6" stroke-width="1.5"/>
  <text x="700" y="97" text-anchor="middle" fill="#93c5fd" font-size="11" font-weight="600">🌐  INTERNET</text>
  <text x="700" y="113" text-anchor="middle" fill="#64748b" font-size="10">Users / External Traffic</text>

  <!-- Arrow: Internet → LB -->
  <line x1="700" y1="124" x2="700" y2="148" stroke="#3b82f6" stroke-width="2" stroke-dasharray="4,3"/>
  <polygon points="700,150 695,141 705,141" fill="#3b82f6"/>

  <!-- ── LOAD BALANCER ── -->
  <rect x="460" y="150" width="480" height="54" rx="8" fill="#1e3a5f" stroke="#3b82f6" stroke-width="2"/>
  <text x="700" y="170" text-anchor="middle" fill="#60a5fa" font-size="12" font-weight="700">⚖  Global HTTPS Load Balancer</text>
  <text x="700" y="186" text-anchor="middle" fill="#93c5fd" font-size="10">35.186.212.137  ·  dev-http-forwarding-rule  ·  dev-web-backend  ·  dev-web-url-map</text>

  <!-- Arrow: LB → VPC -->
  <line x1="700" y1="204" x2="700" y2="228" stroke="#3b82f6" stroke-width="2"/>
  <polygon points="700,230 695,221 705,221" fill="#3b82f6"/>

  <!-- ══ VPC BOUNDARY ══ -->
  <rect x="40" y="230" width="1320" height="580" rx="12" fill="#111827" stroke="#374151" stroke-width="2" stroke-dasharray="8,4"/>
  <text x="60" y="252" fill="#4b5563" font-size="11" font-weight="600">🔒  dev-vpc  ·  us-central1  ·  Custom VPC  ·  auto_create_subnetworks = false</text>

  <!-- ── PUBLIC SUBNET ── -->
  <rect x="60" y="262" width="580" height="300" rx="10" fill="#0f2340" stroke="#1d4ed8" stroke-width="1.5"/>
  <text x="80" y="282" fill="#3b82f6" font-size="11" font-weight="700">PUBLIC SUBNET  ·  10.0.1.0/24</text>

  <!-- Instance Template box -->
  <rect x="80" y="292" width="250" height="80" rx="7" fill="#1e3a5f" stroke="#2563eb" stroke-width="1"/>
  <text x="205" y="310" text-anchor="middle" fill="#60a5fa" font-size="11" font-weight="600">📋  Instance Template</text>
  <text x="205" y="326" text-anchor="middle" fill="#93c5fd" font-size="10">dev-web-template-xxx</text>
  <text x="205" y="341" text-anchor="middle" fill="#64748b" font-size="10">e2-micro · debian-11 · nginx</text>
  <text x="205" y="356" text-anchor="middle" fill="#64748b" font-size="10">create_before_destroy = true</text>

  <!-- MIG box -->
  <rect x="350" y="292" width="270" height="80" rx="7" fill="#1e3a5f" stroke="#2563eb" stroke-width="1"/>
  <text x="485" y="310" text-anchor="middle" fill="#60a5fa" font-size="11" font-weight="600">🖥  Managed Instance Group</text>
  <text x="485" y="326" text-anchor="middle" fill="#93c5fd" font-size="10">dev-web-mig  ·  regional</text>
  <text x="485" y="341" text-anchor="middle" fill="#64748b" font-size="10">1–2 instances  ·  CPU autoscale 70%</text>
  <text x="485" y="356" text-anchor="middle" fill="#64748b" font-size="10">auto-healing  ·  multi-zone</text>

  <!-- Arrow: Template → MIG -->
  <line x1="330" y1="332" x2="348" y2="332" stroke="#2563eb" stroke-width="1.5"/>
  <polygon points="350,332 342,328 342,336" fill="#2563eb"/>

  <!-- VM instances -->
  <rect x="80" y="390" width="120" height="50" rx="6" fill="#172554" stroke="#1d4ed8" stroke-width="1"/>
  <text x="140" y="410" text-anchor="middle" fill="#93c5fd" font-size="10" font-weight="600">VM: dev-web-jdww</text>
  <text x="140" y="425" text-anchor="middle" fill="#64748b" font-size="9">10.0.1.2 · us-central1-f</text>

  <rect x="215" y="390" width="120" height="50" rx="6" fill="#172554" stroke="#1d4ed8" stroke-width="1"/>
  <text x="275" y="410" text-anchor="middle" fill="#93c5fd" font-size="10" font-weight="600">VM: dev-web-pj49</text>
  <text x="275" y="425" text-anchor="middle" fill="#64748b" font-size="9">10.0.1.x · us-central1-c</text>

  <!-- Health Check -->
  <rect x="350" y="390" width="270" height="50" rx="6" fill="#172554" stroke="#1d4ed8" stroke-width="1"/>
  <text x="485" y="410" text-anchor="middle" fill="#93c5fd" font-size="10" font-weight="600">❤  Health Check: dev-web-health-check</text>
  <text x="485" y="425" text-anchor="middle" fill="#64748b" font-size="9">HTTP /health · interval 10s · threshold 2/3</text>

  <!-- Firewall rules -->
  <rect x="80" y="456" width="540" height="90" rx="7" fill="#0c1a2e" stroke="#1e3a5f" stroke-width="1"/>
  <text x="350" y="474" text-anchor="middle" fill="#4b5563" font-size="10" font-weight="600">🔥  FIREWALL RULES</text>
  <text x="180" y="492" text-anchor="middle" fill="#64748b" font-size="9">dev-allow-http-https</text>
  <text x="180" y="505" text-anchor="middle" fill="#475569" font-size="9">0.0.0.0/0 → :80,:443</text>
  <text x="310" y="492" text-anchor="middle" fill="#64748b" font-size="9">dev-allow-iap-ssh</text>
  <text x="310" y="505" text-anchor="middle" fill="#475569" font-size="9">35.235.240.0/20 → :22</text>
  <text x="440" y="492" text-anchor="middle" fill="#64748b" font-size="9">dev-allow-internal</text>
  <text x="440" y="505" text-anchor="middle" fill="#475569" font-size="9">10.0.0.0/8 → all</text>
  <text x="570" y="492" text-anchor="middle" fill="#64748b" font-size="9">dev-allow-health-checks</text>
  <text x="570" y="505" text-anchor="middle" fill="#475569" font-size="9">130.211.0.0/22 → :80</text>
  <line x1="240" y1="480" x2="240" y2="518" stroke="#1e3a5f" stroke-width="1"/>
  <line x1="370" y1="480" x2="370" y2="518" stroke="#1e3a5f" stroke-width="1"/>
  <line x1="500" y1="480" x2="500" y2="518" stroke="#1e3a5f" stroke-width="1"/>

  <!-- NAT + Router -->
  <rect x="80" y="556" width="260" height="50" rx="6" fill="#0c1a2e" stroke="#1e3a5f" stroke-width="1"/>
  <text x="210" y="575" text-anchor="middle" fill="#64748b" font-size="10" font-weight="600">🔀  Cloud Router + NAT</text>
  <text x="210" y="590" text-anchor="middle" fill="#475569" font-size="9">dev-router · dev-nat · AUTO_ONLY · all subnets</text>

  <!-- ── PRIVATE SUBNET ── -->
  <rect x="660" y="262" width="340" height="300" rx="10" fill="#0f2d1f" stroke="#15803d" stroke-width="1.5"/>
  <text x="680" y="282" fill="#16a34a" font-size="11" font-weight="700">PRIVATE SUBNET  ·  10.0.2.0/24</text>

  <!-- Cloud SQL -->
  <rect x="680" y="292" width="300" height="100" rx="7" fill="#14532d" stroke="#15803d" stroke-width="1"/>
  <text x="830" y="312" text-anchor="middle" fill="#4ade80" font-size="11" font-weight="600">🗄  Cloud SQL PostgreSQL 15</text>
  <text x="830" y="328" text-anchor="middle" fill="#86efac" font-size="10">dev-postgres-efa9df2e</text>
  <text x="830" y="344" text-anchor="middle" fill="#64748b" font-size="10">db-f1-micro · 10GB SSD · 10.51.0.3</text>
  <text x="830" y="360" text-anchor="middle" fill="#64748b" font-size="10">private IP only · ipv4_enabled = false</text>
  <text x="830" y="375" text-anchor="middle" fill="#64748b" font-size="10">backups enabled · PITR · 7-day retention</text>

  <!-- DB details -->
  <rect x="680" y="402" width="142" height="50" rx="6" fill="#052e16" stroke="#15803d" stroke-width="1"/>
  <text x="751" y="420" text-anchor="middle" fill="#86efac" font-size="10" font-weight="600">Database: appdb</text>
  <text x="751" y="435" text-anchor="middle" fill="#64748b" font-size="9">User: appuser</text>

  <rect x="838" y="402" width="142" height="50" rx="6" fill="#052e16" stroke="#15803d" stroke-width="1"/>
  <text x="909" y="420" text-anchor="middle" fill="#86efac" font-size="10" font-weight="600">🔑  Secret Manager</text>
  <text x="909" y="435" text-anchor="middle" fill="#64748b" font-size="9">dev-db-password</text>

  <!-- VPC Peering -->
  <rect x="680" y="462" width="300" height="40" rx="6" fill="#052e16" stroke="#15803d" stroke-width="1"/>
  <text x="830" y="479" text-anchor="middle" fill="#64748b" font-size="9" font-weight="600">VPC Peering: google_service_networking_connection</text>
  <text x="830" y="493" text-anchor="middle" fill="#475569" font-size="9">servicenetworking.googleapis.com · /16 reserved range</text>

  <!-- ── DATA PIPELINE ── -->
  <rect x="60" y="570" width="580" height="220" rx="10" fill="#1c1400" stroke="#b45309" stroke-width="1.5"/>
  <text x="80" y="590" fill="#d97706" font-size="11" font-weight="700">DATA PIPELINE</text>

  <!-- GCS Landing -->
  <rect x="80" y="600" width="120" height="60" rx="6" fill="#292400" stroke="#b45309" stroke-width="1"/>
  <text x="140" y="620" text-anchor="middle" fill="#fbbf24" font-size="10" font-weight="600">🪣  GCS Landing</text>
  <text x="140" y="634" text-anchor="middle" fill="#64748b" font-size="9">-dev-landing</text>
  <text x="140" y="648" text-anchor="middle" fill="#64748b" font-size="9">30-day lifecycle</text>

  <!-- Arrow: GCS → PubSub -->
  <line x1="200" y1="630" x2="218" y2="630" stroke="#b45309" stroke-width="1.5"/>
  <polygon points="220,630 212,626 212,634" fill="#b45309"/>
  <text x="209" y="624" text-anchor="middle" fill="#78350f" font-size="8">notify</text>

  <!-- PubSub -->
  <rect x="220" y="600" width="120" height="60" rx="6" fill="#292400" stroke="#b45309" stroke-width="1"/>
  <text x="280" y="620" text-anchor="middle" fill="#fbbf24" font-size="10" font-weight="600">📨  Pub/Sub</text>
  <text x="280" y="634" text-anchor="middle" fill="#64748b" font-size="9">dev-file-uploaded</text>
  <text x="280" y="648" text-anchor="middle" fill="#64748b" font-size="9">dead-letter queue</text>

  <!-- Arrow: PubSub → Function -->
  <line x1="340" y1="630" x2="358" y2="630" stroke="#b45309" stroke-width="1.5"/>
  <polygon points="360,630 352,626 352,634" fill="#b45309"/>
  <text x="349" y="624" text-anchor="middle" fill="#78350f" font-size="8">trigger</text>

  <!-- Cloud Function -->
  <rect x="360" y="600" width="130" height="60" rx="6" fill="#292400" stroke="#b45309" stroke-width="1"/>
  <text x="425" y="617" text-anchor="middle" fill="#fbbf24" font-size="10" font-weight="600">⚡  Cloud Function v2</text>
  <text x="425" y="631" text-anchor="middle" fill="#64748b" font-size="9">dev-etl-processor</text>
  <text x="425" y="645" text-anchor="middle" fill="#64748b" font-size="9">python311 · 256MB</text>
  <text x="425" y="659" text-anchor="middle" fill="#64748b" font-size="9">parse CSV → BigQuery</text>

  <!-- Arrow: Function → BQ -->
  <line x1="425" y1="660" x2="425" y2="678" stroke="#b45309" stroke-width="1.5"/>
  <polygon points="425,680 420,671 430,671" fill="#b45309"/>

  <!-- BigQuery -->
  <rect x="360" y="680" width="130" height="55" rx="6" fill="#292400" stroke="#b45309" stroke-width="1"/>
  <text x="425" y="698" text-anchor="middle" fill="#fbbf24" font-size="10" font-weight="600">📊  BigQuery</text>
  <text x="425" y="712" text-anchor="middle" fill="#64748b" font-size="9">dev_pipeline.raw_events</text>
  <text x="425" y="726" text-anchor="middle" fill="#64748b" font-size="9">DAY partitioned · JSON payload</text>

  <!-- GCS Curated -->
  <rect x="510" y="600" width="115" height="60" rx="6" fill="#292400" stroke="#b45309" stroke-width="1"/>
  <text x="567" y="620" text-anchor="middle" fill="#fbbf24" font-size="10" font-weight="600">🪣  GCS Curated</text>
  <text x="567" y="634" text-anchor="middle" fill="#64748b" font-size="9">-dev-curated</text>
  <text x="567" y="648" text-anchor="middle" fill="#64748b" font-size="9">versioned · processed/</text>

  <!-- Arrow: Function → Curated -->
  <line x1="490" y1="630" x2="508" y2="630" stroke="#b45309" stroke-width="1.5"/>
  <polygon points="510,630 502,626 502,634" fill="#b45309"/>

  <!-- ── SERVERLESS / CLOUD RUN ── -->
  <rect x="660" y="570" width="340" height="220" rx="10" fill="#1a0a2e" stroke="#7c3aed" stroke-width="1.5"/>
  <text x="680" y="590" fill="#a78bfa" font-size="11" font-weight="700">API MICROSERVICE</text>

  <!-- Cloud Run -->
  <rect x="680" y="600" width="300" height="90" rx="7" fill="#2d1b69" stroke="#7c3aed" stroke-width="1"/>
  <text x="830" y="620" text-anchor="middle" fill="#c4b5fd" font-size="11" font-weight="600">☁  Cloud Run v2</text>
  <text x="830" y="636" text-anchor="middle" fill="#a78bfa" font-size="10">dev-api-service</text>
  <text x="830" y="651" text-anchor="middle" fill="#64748b" font-size="10">https://dev-api-service-rnugorbs4q-uc.a.run.app</text>
  <text x="830" y="666" text-anchor="middle" fill="#64748b" font-size="10">0–3 instances · 512Mi · serverless</text>
  <text x="830" y="681" text-anchor="middle" fill="#64748b" font-size="10">INGRESS_TRAFFIC_ALL · allUsers invoker</text>

  <!-- Artifact Registry -->
  <rect x="680" y="702" width="142" height="50" rx="6" fill="#1a0a2e" stroke="#7c3aed" stroke-width="1"/>
  <text x="751" y="720" text-anchor="middle" fill="#a78bfa" font-size="10" font-weight="600">📦  Artifact Registry</text>
  <text x="751" y="735" text-anchor="middle" fill="#64748b" font-size="9">dev-api-repo · DOCKER</text>

  <!-- API Key Secret -->
  <rect x="838" y="702" width="142" height="50" rx="6" fill="#1a0a2e" stroke="#7c3aed" stroke-width="1"/>
  <text x="909" y="720" text-anchor="middle" fill="#a78bfa" font-size="10" font-weight="600">🔑  Secret Manager</text>
  <text x="909" y="735" text-anchor="middle" fill="#64748b" font-size="9">dev-api-key · 32-char</text>

  <!-- ── IAM PANEL ── -->
  <rect x="1020" y="262" width="320" height="300" rx="10" fill="#1a0f00" stroke="#92400e" stroke-width="1.5"/>
  <text x="1040" y="282" fill="#d97706" font-size="11" font-weight="700">IAM — LEAST PRIVILEGE</text>

  <rect x="1040" y="292" width="280" height="52" rx="6" fill="#291a00" stroke="#92400e" stroke-width="1"/>
  <text x="1180" y="310" text-anchor="middle" fill="#fbbf24" font-size="10" font-weight="600">dev-web-app-sa</text>
  <text x="1180" y="325" text-anchor="middle" fill="#64748b" font-size="9">logging.logWriter · monitoring.metricWriter</text>

  <rect x="1040" y="354" width="280" height="52" rx="6" fill="#291a00" stroke="#92400e" stroke-width="1"/>
  <text x="1180" y="372" text-anchor="middle" fill="#fbbf24" font-size="10" font-weight="600">dev-data-pipeline-sa</text>
  <text x="1180" y="387" text-anchor="middle" fill="#64748b" font-size="9">bigquery.dataEditor · storage.objectAdmin · pubsub.editor</text>

  <rect x="1040" y="416" width="280" height="52" rx="6" fill="#291a00" stroke="#92400e" stroke-width="1"/>
  <text x="1180" y="434" text-anchor="middle" fill="#fbbf24" font-size="10" font-weight="600">dev-api-service-sa</text>
  <text x="1180" y="449" text-anchor="middle" fill="#64748b" font-size="9">secretmanager.secretAccessor · logging.logWriter</text>

  <rect x="1040" y="478" width="280" height="52" rx="6" fill="#291a00" stroke="#92400e" stroke-width="1"/>
  <text x="1180" y="496" text-anchor="middle" fill="#fbbf24" font-size="10" font-weight="600">dev-cloud-build-sa</text>
  <text x="1180" y="511" text-anchor="middle" fill="#64748b" font-size="9">run.developer · artifactregistry.writer</text>

  <!-- ── MONITORING PANEL ── -->
  <rect x="1020" y="580" width="320" height="210" rx="10" fill="#0a1a0a" stroke="#166534" stroke-width="1.5"/>
  <text x="1040" y="600" fill="#4ade80" font-size="11" font-weight="700">MONITORING</text>

  <rect x="1040" y="610" width="280" height="45" rx="6" fill="#052e16" stroke="#166534" stroke-width="1"/>
  <text x="1180" y="628" text-anchor="middle" fill="#86efac" font-size="10" font-weight="600">📧  Email Notification Channel</text>
  <text x="1180" y="642" text-anchor="middle" fill="#64748b" font-size="9">your-email@domain.com</text>

  <rect x="1040" y="664" width="280" height="45" rx="6" fill="#052e16" stroke="#166534" stroke-width="1"/>
  <text x="1180" y="682" text-anchor="middle" fill="#86efac" font-size="10" font-weight="600">🚨  Alert: High CPU &gt; 80%</text>
  <text x="1180" y="696" text-anchor="middle" fill="#64748b" font-size="9">GCE · 5min window · auto-close 30min</text>

  <rect x="1040" y="718" width="280" height="45" rx="6" fill="#052e16" stroke="#166534" stroke-width="1"/>
  <text x="1180" y="736" text-anchor="middle" fill="#86efac" font-size="10" font-weight="600">🚨  Alert: Cloud Run 5xx Errors</text>
  <text x="1180" y="750" text-anchor="middle" fill="#64748b" font-size="9">Cloud Run · 2min window · error rate &gt; 5</text>

  <!-- Dashboard -->
  <rect x="1040" y="772" width="280" height="30" rx="6" fill="#052e16" stroke="#166534" stroke-width="1"/>
  <text x="1180" y="792" text-anchor="middle" fill="#64748b" font-size="9">📊  Dashboard: GCE CPU + Cloud Run Requests</text>

  <!-- ── TERRAFORM STATE ── -->
  <rect x="60" y="800" width="940" height="0" rx="0" fill="none"/>

  <!-- Bottom bar -->
  <rect x="40" y="825" width="1320" height="55" rx="8" fill="#0f1117" stroke="#1f2937" stroke-width="1"/>
  <text x="700" y="845" text-anchor="middle" fill="#4b5563" font-size="10" font-weight="600">TERRAFORM STATE  ·  Remote backend: gs://YOUR-PROJECT-terraform-state/environments/dev/</text>

  <!-- Module badges -->
  <rect x="60" y="855" width="100" height="18" rx="4" fill="#1e3a5f" stroke="#2563eb" stroke-width="1"/>
  <text x="110" y="868" text-anchor="middle" fill="#60a5fa" font-size="9">module.networking</text>

  <rect x="170" y="855" width="80" height="18" rx="4" fill="#291a00" stroke="#92400e" stroke-width="1"/>
  <text x="210" y="868" text-anchor="middle" fill="#fbbf24" font-size="9">module.iam</text>

  <rect x="260" y="855" width="90" height="18" rx="4" fill="#172554" stroke="#1d4ed8" stroke-width="1"/>
  <text x="305" y="868" text-anchor="middle" fill="#93c5fd" font-size="9">module.compute</text>

  <rect x="360" y="855" width="90" height="18" rx="4" fill="#052e16" stroke="#15803d" stroke-width="1"/>
  <text x="405" y="868" text-anchor="middle" fill="#86efac" font-size="9">module.database</text>

  <rect x="460" y="855" width="110" height="18" rx="4" fill="#292400" stroke="#b45309" stroke-width="1"/>
  <text x="515" y="868" text-anchor="middle" fill="#fbbf24" font-size="9">module.data_pipeline</text>

  <rect x="580" y="855" width="100" height="18" rx="4" fill="#2d1b69" stroke="#7c3aed" stroke-width="1"/>
  <text x="630" y="868" text-anchor="middle" fill="#c4b5fd" font-size="9">module.serverless</text>

  <rect x="690" y="855" width="100" height="18" rx="4" fill="#052e16" stroke="#166534" stroke-width="1"/>
  <text x="740" y="868" text-anchor="middle" fill="#4ade80" font-size="9">module.monitoring</text>

  <rect x="800" y="855" width="160" height="18" rx="4" fill="#111827" stroke="#374151" stroke-width="1"/>
  <text x="880" y="868" text-anchor="middle" fill="#6b7280" font-size="9">64 resources · terraform apply</text>

  <!-- ── CONNECTING ARROWS ── -->

  <!-- LB to MIG -->
  <line x1="620" y1="204" x2="490" y2="292" stroke="#3b82f6" stroke-width="1.5" stroke-dasharray="5,3"/>
  <polygon points="490,292 488,281 498,284" fill="#3b82f6"/>

  <!-- Cloud Run public arrow from internet -->
  <line x1="800" y1="124" x2="900" y2="150" stroke="#7c3aed" stroke-width="1.5" stroke-dasharray="4,3"/>

  <!-- Pub/Sub to function label -->
  <text x="350" y="595" text-anchor="middle" fill="#78350f" font-size="9">event-driven pipeline</text>

  <!-- IAM arrows to services (subtle) -->
  <line x1="1020" y1="318" x2="980" y2="340" stroke="#92400e" stroke-width="1" stroke-dasharray="3,3" opacity="0.5"/>
  <line x1="1020" y1="380" x2="980" y2="630" stroke="#92400e" stroke-width="1" stroke-dasharray="3,3" opacity="0.5"/>
  <line x1="1020" y1="442" x2="980" y2="650" stroke="#92400e" stroke-width="1" stroke-dasharray="3,3" opacity="0.5"/>

  <!-- Verification badge -->
  <rect x="1150" y="855" width="200" height="18" rx="4" fill="#14532d" stroke="#15803d" stroke-width="1"/>
  <text x="1250" y="868" text-anchor="middle" fill="#4ade80" font-size="9" font-weight="700">✅  29/29 verify.sh · 0 failures</text>

</svg>
